<svg xmlns="http://www.w3.org/2000/svg" viewBox="0 0 1200 900" font-family="system-ui, -apple-system, sans-serif">
  <defs>
    <marker id="arrow" viewBox="0 0 10 10" refX="9" refY="5" markerWidth="8" markerHeight="6" orient="auto-start-reverse">
      <path d="M 0 0 L 10 5 L 0 10 z" fill="#2563eb"/>
    </marker>
    <marker id="arrow-green" viewBox="0 0 10 10" refX="9" refY="5" markerWidth="8" markerHeight="6" orient="auto-start-reverse">
      <path d="M 0 0 L 10 5 L 0 10 z" fill="#059669"/>
    </marker>
    <marker id="arrow-orange" viewBox="0 0 10 10" refX="9" refY="5" markerWidth="8" markerHeight="6" orient="auto-start-reverse">
      <path d="M 0 0 L 10 5 L 0 10 z" fill="#ea580c"/>
    </marker>
    <linearGradient id="bg-front" x1="0%" y1="0%" x2="0%" y2="100%">
      <stop offset="0%" stop-color="#fef3c7"/>
      <stop offset="100%" stop-color="#fde68a"/>
    </linearGradient>
    <linearGradient id="bg-service" x1="0%" y1="0%" x2="0%" y2="100%">
      <stop offset="0%" stop-color="#f0f9ff"/>
      <stop offset="100%" stop-color="#e0f2fe"/>
    </linearGradient>
    <linearGradient id="bg-core" x1="0%" y1="0%" x2="0%" y2="100%">
      <stop offset="0%" stop-color="#ecfdf5"/>
      <stop offset="100%" stop-color="#a7f3d0"/>
    </linearGradient>
    <linearGradient id="bg-data" x1="0%" y1="0%" x2="0%" y2="100%">
      <stop offset="0%" stop-color="#f5f3ff"/>
      <stop offset="100%" stop-color="#ddd6fe"/>
    </linearGradient>
    <linearGradient id="bg-source" x1="0%" y1="0%" x2="0%" y2="100%">
      <stop offset="0%" stop-color="#fef2f2"/>
      <stop offset="100%" stop-color="#fecaca"/>
    </linearGradient>
    <filter id="shadow" x="-5%" y="-5%" width="110%" height="110%">
      <feDropShadow dx="2" dy="3" stdDeviation="3" flood-opacity="0.12"/>
    </filter>
  </defs>
  <rect width="1200" height="900" fill="#ffffff" rx="12"/>
  <text x="600" y="36" text-anchor="middle" font-size="22" font-weight="700" fill="#1e293b">DATA_RELY_ANALYSIS_SYS — System Architecture</text>
  <text x="600" y="56" text-anchor="middle" font-size="12" fill="#64748b">FastAPI + Python 3.11+ | Field-Level Lineage | Caliber Tracing | D3.js Visualization</text>
  <rect x="40" y="80" width="1120" height="100" rx="10" fill="url(#bg-front)" stroke="#fbbf24" stroke-width="1.5" filter="url(#shadow)"/>
  <text x="60" y="100" font-size="11" font-weight="600" fill="#92400e">FRONTEND (D3.js + Native JS)</text>
  <rect x="110" y="110" width="150" height="55" rx="8" fill="white" stroke="#f59e0b" stroke-width="1.2"/>
  <text x="185" y="128" text-anchor="middle" font-size="11" fill="#92400e">index.html</text>
  <text x="185" y="142" text-anchor="middle" font-size="11" fill="#92400e">query页面</text>
  <rect x="290" y="110" width="150" height="55" rx="8" fill="white" stroke="#f59e0b" stroke-width="1.2"/>
  <text x="365" y="128" text-anchor="middle" font-size="11" fill="#92400e">static/js/</text>
  <text x="365" y="142" text-anchor="middle" font-size="11" fill="#92400e">D3.js可视化</text>
  <rect x="470" y="110" width="150" height="55" rx="8" fill="white" stroke="#f59e0b" stroke-width="1.2"/>
  <text x="545" y="128" text-anchor="middle" font-size="11" fill="#92400e">layer-config.js</text>
  <text x="545" y="142" text-anchor="middle" font-size="11" fill="#92400e">17层配置</text>
  <rect x="650" y="110" width="150" height="55" rx="8" fill="white" stroke="#f59e0b" stroke-width="1.2"/>
  <text x="725" y="128" text-anchor="middle" font-size="11" fill="#92400e">summary_card.html</text>
  <text x="725" y="142" text-anchor="middle" font-size="11" fill="#92400e">口径卡片</text>
  <rect x="830" y="110" width="150" height="55" rx="8" fill="white" stroke="#f59e0b" stroke-width="1.2"/>
  <text x="905" y="128" text-anchor="middle" font-size="11" fill="#92400e">query_template.html</text>
  <text x="905" y="142" text-anchor="middle" font-size="11" fill="#92400e">查询模板</text>
  <rect x="1010" y="110" width="150" height="55" rx="8" fill="white" stroke="#f59e0b" stroke-width="1.2"/>
  <text x="1085" y="128" text-anchor="middle" font-size="11" fill="#92400e">temp_uploads/</text>
  <text x="1085" y="142" text-anchor="middle" font-size="11" fill="#92400e">文件上传</text>
  <rect x="40" y="210" width="1120" height="110" rx="10" fill="url(#bg-service)" stroke="#bae6fd" stroke-width="1.5" filter="url(#shadow)"/>
  <text x="60" y="230" font-size="11" font-weight="600" fill="#0369a1">API ROUTES (FastAPI)</text>
  <rect x="110" y="245" width="150" height="55" rx="8" fill="white" stroke="#2563eb" stroke-width="1.5"/>
  <text x="185" y="263" text-anchor="middle" font-size="11" fill="#2563eb">lineage.py</text>
  <text x="185" y="277" text-anchor="middle" font-size="11" fill="#2563eb">表搜索/血缘查询</text>
  <rect x="290" y="245" width="150" height="55" rx="8" fill="white" stroke="#7c3aed" stroke-width="1.5"/>
  <text x="365" y="263" text-anchor="middle" font-size="11" fill="#7c3aed">indicator.py</text>
  <text x="365" y="277" text-anchor="middle" font-size="11" fill="#7c3aed">指标血缘API</text>
  <rect x="470" y="245" width="150" height="55" rx="8" fill="white" stroke="#059669" stroke-width="1.5"/>
  <text x="545" y="263" text-anchor="middle" font-size="11" fill="#059669">parse.py</text>
  <text x="545" y="277" text-anchor="middle" font-size="11" fill="#059669">文件上传/SSE进度</text>
  <rect x="650" y="245" width="150" height="55" rx="8" fill="white" stroke="#6b7280" stroke-width="1.5"/>
  <text x="725" y="263" text-anchor="middle" font-size="11" fill="#6b7280">system.py</text>
  <text x="725" y="277" text-anchor="middle" font-size="11" fill="#6b7280">健康检查/统计</text>
  <rect x="830" y="245" width="150" height="55" rx="8" fill="white" stroke="#ea580c" stroke-width="1.5"/>
  <text x="905" y="263" text-anchor="middle" font-size="11" fill="#ea580c">/api/lineage</text>
  <text x="905" y="277" text-anchor="middle" font-size="11" fill="#ea580c">/api/indicator</text>
  <rect x="1010" y="245" width="150" height="55" rx="8" fill="white" stroke="#dc2626" stroke-width="1.5"/>
  <text x="1085" y="263" text-anchor="middle" font-size="11" fill="#dc2626">/api/parse</text>
  <text x="1085" y="277" text-anchor="middle" font-size="11" fill="#dc2626">/api/system</text>
  <rect x="40" y="340" width="1120" height="160" rx="10" fill="url(#bg-service)" stroke="#bae6fd" stroke-width="1.5" filter="url(#shadow)"/>
  <text x="60" y="360" font-size="11" font-weight="600" fill="#0369a1">SERVICE LAYER (Business Services)</text>
  <rect x="80" y="380" width="160" height="65" rx="8" fill="white" stroke="#2563eb" stroke-width="1.2"/>
  <text x="160" y="398" text-anchor="middle" font-size="10" fill="#2563eb">ParserService</text>
  <text x="160" y="413" text-anchor="middle" font-size="10" fill="#2563eb">文件解析/序列化</text>
  <text x="160" y="428" text-anchor="middle" font-size="10" fill="#2563eb">缓存加载</text>
  <rect x="260" y="380" width="160" height="65" rx="8" fill="white" stroke="#2563eb" stroke-width="1.2"/>
  <text x="340" y="398" text-anchor="middle" font-size="10" fill="#2563eb">LineageService</text>
  <text x="340" y="413" text-anchor="middle" font-size="10" fill="#2563eb">BFS血缘追溯</text>
  <text x="340" y="428" text-anchor="middle" font-size="10" fill="#2563eb">字段/表级</text>
  <rect x="440" y="380" width="160" height="65" rx="8" fill="white" stroke="#7c3aed" stroke-width="1.2"/>
  <text x="520" y="398" text-anchor="middle" font-size="10" fill="#7c3aed">IndicatorService</text>
  <text x="520" y="413" text-anchor="middle" font-size="10" fill="#7c3aed">指标搜索/血缘</text>
  <text x="520" y="428" text-anchor="middle" font-size="10" fill="#7c3aed">图谱构建</text>
  <rect x="620" y="380" width="160" height="65" rx="8" fill="white" stroke="#059669" stroke-width="1.2"/>
  <text x="700" y="398" text-anchor="middle" font-size="10" fill="#059669">CaliberService</text>
  <text x="700" y="413" text-anchor="middle" font-size="10" fill="#059669">口径提取/追溯</text>
  <text x="700" y="428" text-anchor="middle" font-size="10" fill="#059669">文档导出</text>
  <rect x="800" y="380" width="160" height="65" rx="8" fill="white" stroke="#6b7280" stroke-width="1.2"/>
  <text x="880" y="398" text-anchor="middle" font-size="10" fill="#6b7280">ProgressService</text>
  <text x="880" y="413" text-anchor="middle" font-size="10" fill="#6b7280">SSE进度推送</text>
  <text x="880" y="428" text-anchor="middle" font-size="10" fill="#6b7280">任务状态</text>
  <rect x="80" y="460" width="140" height="40" rx="6" fill="white" stroke="#64748b" stroke-width="1"/>
  <text x="150" y="474" text-anchor="middle" font-size="9" fill="#374151">TableQueryService</text>
  <text x="150" y="487" text-anchor="middle" font-size="9" fill="#374151">表查询/搜索</text>
  <rect x="260" y="460" width="140" height="40" rx="6" fill="white" stroke="#64748b" stroke-width="1"/>
  <text x="330" y="474" text-anchor="middle" font-size="9" fill="#374151">EventBus</text>
  <text x="330" y="487" text-anchor="middle" font-size="9" fill="#374151">事件发布/订阅</text>
  <rect x="440" y="460" width="140" height="40" rx="6" fill="white" stroke="#64748b" stroke-width="1"/>
  <text x="510" y="474" text-anchor="middle" font-size="9" fill="#374151">CacheStore</text>
  <text x="510" y="487" text-anchor="middle" font-size="9" fill="#374151">pickle/json双写</text>
  <rect x="620" y="460" width="140" height="40" rx="6" fill="white" stroke="#64748b" stroke-width="1"/>
  <text x="690" y="474" text-anchor="middle" font-size="9" fill="#374151">SummaryCardBuilder</text>
  <text x="690" y="487" text-anchor="middle" font-size="9" fill="#374151">口径卡片构建</text>
  <rect x="800" y="460" width="140" height="40" rx="6" fill="white" stroke="#64748b" stroke-width="1"/>
  <text x="870" y="474" text-anchor="middle" font-size="9" fill="#374151">SystemMembership</text>
  <text x="870" y="487" text-anchor="middle" font-size="9" fill="#374151">系统管理仓库</text>
  <rect x="980" y="460" width="140" height="40" rx="6" fill="white" stroke="#64748b" stroke-width="1"/>
  <text x="1050" y="474" text-anchor="middle" font-size="9" fill="#374151">dependencies.py</text>
  <text x="1050" y="487" text-anchor="middle" font-size="9" fill="#374151">@lru_cache DI</text>
  <rect x="40" y="520" width="1120" height="190" rx="10" fill="url(#bg-core)" stroke="#6ee7b7" stroke-width="1.5" filter="url(#shadow)"/>
  <text x="60" y="540" font-size="11" font-weight="600" fill="#065f46">CORE ENGINE (Parsers &amp; Tracers)</text>
  <rect x="60" y="555" width="1080" height="60" rx="6" fill="#f0fdf4" stroke="#86efac" stroke-width="1"/>
  <text x="75" y="572" font-size="10" font-weight="600" fill="#166534">TRACERS &amp; GRAPH BUILDERS</text>
  <rect x="80" y="580" width="195" height="30" rx="6" fill="white" stroke="#16a34a" stroke-width="1"/>
  <text x="177" y="592" text-anchor="middle" font-size="9" fill="#166534">BFS LineageTracer</text>
  <text x="177" y="604" text-anchor="middle" font-size="9" fill="#166534">字段级血缘追溯</text>
  <rect x="300" y="580" width="195" height="30" rx="6" fill="white" stroke="#16a34a" stroke-width="1"/>
  <text x="397" y="592" text-anchor="middle" font-size="9" fill="#166534">BFS CaliberTracer</text>
  <text x="397" y="604" text-anchor="middle" font-size="9" fill="#166534">口径BFS追溯</text>
  <rect x="520" y="580" width="195" height="30" rx="6" fill="white" stroke="#16a34a" stroke-width="1"/>
  <text x="617" y="592" text-anchor="middle" font-size="9" fill="#166534">IndicatorGraphBuilder</text>
  <text x="617" y="604" text-anchor="middle" font-size="9" fill="#166534">指标血缘图构建</text>
  <rect x="740" y="580" width="195" height="30" rx="6" fill="white" stroke="#16a34a" stroke-width="1"/>
  <text x="837" y="592" text-anchor="middle" font-size="9" fill="#166534">CaliberExtractor</text>
  <text x="837" y="604" text-anchor="middle" font-size="9" fill="#166534">口径信息提取</text>
  <rect x="960" y="580" width="195" height="30" rx="6" fill="white" stroke="#16a34a" stroke-width="1"/>
  <text x="1057" y="592" text-anchor="middle" font-size="9" fill="#166534">CaliberExporter</text>
  <text x="1057" y="604" text-anchor="middle" font-size="9" fill="#166534">口径文档导出</text>
  <rect x="60" y="625" width="1080" height="40" rx="6" fill="#f0fdf4" stroke="#86efac" stroke-width="1"/>
  <text x="75" y="642" font-size="10" font-weight="600" fill="#166534">PARSERS</text>
  <rect x="160" y="648" width="110" height="30" rx="5" fill="white" stroke="#16a34a" stroke-width="1"/>
  <text x="215" y="660" text-anchor="middle" font-size="9" fill="#166534">DDL Parser</text>
  <rect x="280" y="648" width="110" height="30" rx="5" fill="white" stroke="#16a34a" stroke-width="1"/>
  <text x="335" y="660" text-anchor="middle" font-size="9" fill="#166534">DML Parser</text>
  <text x="335" y="672" text-anchor="middle" font-size="9" fill="#166534">(_ex映射)</text>
  <rect x="430" y="648" width="110" height="30" rx="5" fill="white" stroke="#16a34a" stroke-width="1"/>
  <text x="485" y="660" text-anchor="middle" font-size="9" fill="#166534">Procedure Parser</text>
  <text x="485" y="672" text-anchor="middle" font-size="9" fill="#166534">存储过程</text>
  <rect x="590" y="648" width="110" height="30" rx="5" fill="white" stroke="#16a34a" stroke-width="1"/>
  <text x="645" y="660" text-anchor="middle" font-size="9" fill="#166534">Table Parser</text>
  <text x="645" y="672" text-anchor="middle" font-size="9" fill="#166534">表结构</text>
  <rect x="740" y="648" width="110" height="30" rx="5" fill="white" stroke="#16a34a" stroke-width="1"/>
  <text x="795" y="660" text-anchor="middle" font-size="9" fill="#166534">Indicator SQL</text>
  <text x="795" y="672" text-anchor="middle" font-size="9" fill="#166534">Parser</text>
  <rect x="900" y="648" width="110" height="30" rx="5" fill="white" stroke="#16a34a" stroke-width="1"/>
  <text x="955" y="660" text-anchor="middle" font-size="9" fill="#166534">CTL Parser</text>
  <text x="955" y="672" text-anchor="middle" font-size="9" fill="#166534">控制脚本</text>
  <rect x="1040" y="648" width="110" height="30" rx="5" fill="white" stroke="#16a34a" stroke-width="1"/>
  <text x="1095" y="660" text-anchor="middle" font-size="9" fill="#166534">Warehouse</text>
  <text x="1095" y="672" text-anchor="middle" font-size="9" fill="#166534">Parser</text>
  <rect x="60" y="685" width="540" height="28" rx="5" fill="#fefce8" stroke="#fde047" stroke-width="0.8"/>
  <text x="75" y="702" font-size="9" fill="#854d0e">Parser Protocol (typing.Protocol) + Registry (auto-routing by extension)</text>
  <rect x="620" y="685" width="200" height="28" rx="5" fill="#fefce8" stroke="#fde047" stroke-width="0.8"/>
  <text x="640" y="702" font-size="9" fill="#854d0e">Table Name Resolver / Layer Detector / Field Cleaner</text>
  <rect x="840" y="685" width="260" height="28" rx="5" fill="#fefce8" stroke="#fde047" stroke-width="0.8"/>
  <text x="860" y="702" font-size="9" fill="#854d0e">sqlglot + Data Validator + SQL Comment Stripper</text>
  <rect x="40" y="730" width="1120" height="110" rx="10" fill="url(#bg-data)" stroke="#c4b5fd" stroke-width="1.5" filter="url(#shadow)"/>
  <text x="60" y="750" font-size="11" font-weight="600" fill="#5b21b6">DATA LAYER</text>
  <rect x="90" y="760" width="150" height="60" rx="8" fill="white" stroke="#7c3aed" stroke-width="1.2"/>
  <text x="165" y="776" text-anchor="middle" font-size="10" fill="#7c3aed">SQLite Store</text>
  <text x="165" y="790" text-anchor="middle" font-size="10" fill="#7c3aed">(sqlite_store.py)</text>
  <text x="165" y="804" text-anchor="middle" font-size="10" fill="#7c3aed">业务数据持久化</text>
  <rect x="280" y="760" width="150" height="60" rx="8" fill="white" stroke="#7c3aed" stroke-width="1.2"/>
  <text x="355" y="776" text-anchor="middle" font-size="10" fill="#7c3aed">Cache Manager</text>
  <text x="355" y="790" text-anchor="middle" font-size="10" fill="#7c3aed">(TTL+LRU缓存)</text>
  <text x="355" y="804" text-anchor="middle" font-size="10" fill="#7c3aed">毫秒级搜索</text>
  <rect x="480" y="760" width="150" height="60" rx="8" fill="white" stroke="#6b7280" stroke-width="1.2"/>
  <text x="555" y="776" text-anchor="middle" font-size="10" fill="#6b7280">Event Bus</text>
  <text x="555" y="790" text-anchor="middle" font-size="10" fill="#6b7280">(发布/订阅)</text>
  <text x="555" y="804" text-anchor="middle" font-size="10" fill="#6b7280">异步解耦</text>
  <rect x="670" y="760" width="150" height="60" rx="8" fill="white" stroke="#dc2626" stroke-width="1.2"/>
  <text x="745" y="776" text-anchor="middle" font-size="10" fill="#dc2626">File Upload Handler</text>
  <text x="745" y="790" text-anchor="middle" font-size="10" fill="#dc2626">(上传/下载)</text>
  <text x="745" y="804" text-anchor="middle" font-size="10" fill="#dc2626">临时文件管理</text>
  <rect x="870" y="760" width="150" height="60" rx="8" fill="white" stroke="#7c3aed" stroke-width="1.2"/>
  <text x="945" y="776" text-anchor="middle" font-size="10" fill="#7c3aed">Repository</text>
  <text x="945" y="790" text-anchor="middle" font-size="10" fill="#7c3aed">(repository.py)</text>
  <text x="945" y="804" text-anchor="middle" font-size="10" fill="#7c3aed">数据仓库抽象</text>
  <rect x="1040" y="760" width="150" height="60" rx="8" fill="white" stroke="#6b7280" stroke-width="1.2"/>
  <text x="1115" y="776" text-anchor="middle" font-size="10" fill="#6b7280">Storage Migrations</text>
  <text x="1115" y="790" text-anchor="middle" font-size="10" fill="#6b7280">(migrations.py)</text>
  <text x="1115" y="804" text-anchor="middle" font-size="10" fill="#6b7280">版本升级</text>
  <rect x="40" y="855" width="1120" height="35" rx="8" fill="url(#bg-source)" stroke="#fca5a5" stroke-width="1.2" filter="url(#shadow)"/>
  <text x="60" y="876" font-size="10" font-weight="600" fill="#991b1b">SOURCE_DATA/: </text>
  <rect x="170" y="862" width="85" height="22" rx="4" fill="white" stroke="#ef4444" stroke-width="0.8"/>
  <text x="212" y="877" text-anchor="middle" font-size="9" fill="#991b1b">EDW (DML/DDL)</text>
  <rect x="265" y="862" width="85" height="22" rx="4" fill="white" stroke="#ef4444" stroke-width="0.8"/>
  <text x="307" y="877" text-anchor="middle" font-size="9" fill="#991b1b">BRT</text>
  <rect x="360" y="862" width="85" height="22" rx="4" fill="white" stroke="#ef4444" stroke-width="0.8"/>
  <text x="402" y="877" text-anchor="middle" font-size="9" fill="#991b1b">CCR</text>
  <rect x="455" y="862" width="85" height="22" rx="4" fill="white" stroke="#ef4444" stroke-width="0.8"/>
  <text x="497" y="877" text-anchor="middle" font-size="9" fill="#991b1b">FDM</text>
  <rect x="550" y="862" width="85" height="22" rx="4" fill="white" stroke="#ef4444" stroke-width="0.8"/>
  <text x="592" y="877" text-anchor="middle" font-size="9" fill="#991b1b">GBASE</text>
  <rect x="645" y="862" width="85" height="22" rx="4" fill="white" stroke="#ef4444" stroke-width="0.8"/>
  <text x="687" y="877" text-anchor="middle" font-size="9" fill="#991b1b">ICR</text>
  <rect x="740" y="862" width="85" height="22" rx="4" fill="white" stroke="#ef4444" stroke-width="0.8"/>
  <text x="782" y="877" text-anchor="middle" font-size="9" fill="#991b1b">MCS</text>
  <rect x="835" y="862" width="85" height="22" rx="4" fill="white" stroke="#ef4444" stroke-width="0.8"/>
  <text x="877" y="877" text-anchor="middle" font-size="9" fill="#991b1b">PAM</text>
  <rect x="930" y="862" width="85" height="22" rx="4" fill="white" stroke="#ef4444" stroke-width="0.8"/>
  <text x="972" y="877" text-anchor="middle" font-size="9" fill="#991b1b">RRP</text>
  <rect x="1025" y="862" width="85" height="22" rx="4" fill="white" stroke="#ef4444" stroke-width="0.8"/>
  <text x="1067" y="877" text-anchor="middle" font-size="9" fill="#991b1b">TDH</text>
  <line x1="600" y1="180" x2="600" y2="210" stroke="#2563eb" stroke-width="2" marker-end="url(#arrow)"/>
  <line x1="600" y1="320" x2="600" y2="340" stroke="#2563eb" stroke-width="2" marker-end="url(#arrow)"/>
  <line x1="400" y1="500" x2="400" y2="520" stroke="#059669" stroke-width="2" marker-end="url(#arrow-green)"/>
  <line x1="800" y1="500" x2="800" y2="520" stroke="#059669" stroke-width="2" marker-end="url(#arrow-green)"/>
  <line x1="600" y1="710" x2="600" y2="730" stroke="#7c3aed" stroke-width="2" marker-end="url(#arrow)"/>
  <line x1="600" y1="840" x2="600" y2="855" stroke="#dc2626" stroke-width="2" marker-end="url(#arrow-orange)"/>
</svg>